<svg xmlns="http://www.w3.org/2000/svg" width="1400" height="1020" viewBox="0 0 1400 1020">
<style>
.entity rect { fill: #f5f5f5; stroke: #888780; stroke-width: 1.5; }
.entity text { fill: #222; font-size: 13px; font-weight: 500; font-family: Arial, sans-serif; }
.rel polygon { fill: #fff; stroke: #888780; stroke-width: 1.3; }
.rel text { fill: #555; font-size: 11px; font-family: Arial, sans-serif; }
.attr ellipse { fill: #fff; stroke: #b4b2a9; stroke-width: 1; }
.attr text { fill: #555; font-size: 10px; font-family: Arial, sans-serif; }
.attr-key ellipse { fill: #fff; stroke: #b4b2a9; stroke-width: 1; }
.attr-key text { fill: #555; font-size: 10px; font-family: Arial, sans-serif; text-decoration: underline; }
line.edge { stroke: #888780; stroke-width: 1; }
line.edge-dashed { stroke: #b4b2a9; stroke-width: 0.8; stroke-dasharray: 4 3; }
.card-label { fill: #999; font-size: 10px; font-family: Arial, sans-serif; }
.legend rect { fill: #f5f5f5; stroke: #b4b2a9; stroke-width: 1; }
.legend ellipse { fill: #fff; stroke: #b4b2a9; stroke-width: 1; }
.legend polygon { fill: #fff; stroke: #888780; stroke-width: 1.3; }
.legend text { fill: #555; font-size: 11px; font-family: Arial, sans-serif; }
</style>

<!-- White background -->
<rect width="1400" height="1020" fill="white"/>

<!-- ENTITIES -->
<g class="entity"><rect x="570" y="30" width="120" height="38" rx="0"/><text x="630" y="54" text-anchor="middle">USER</text></g>
<g class="entity"><rect x="140" y="220" width="120" height="38" rx="0"/><text x="200" y="244" text-anchor="middle">STUDENT</text></g>
<g class="entity"><rect x="570" y="220" width="120" height="38" rx="0"/><text x="630" y="244" text-anchor="middle">INSTRUCTOR</text></g>
<g class="entity"><rect x="1010" y="220" width="120" height="38" rx="0"/><text x="1070" y="244" text-anchor="middle">REGISTRAR</text></g>
<g class="entity"><rect x="890" y="30" width="120" height="38" rx="0"/><text x="950" y="54" text-anchor="middle">SEMESTER</text></g>
<g class="entity"><rect x="280" y="30" width="120" height="38" rx="0"/><text x="340" y="54" text-anchor="middle">COURSE</text></g>
<g class="entity"><rect x="530" y="430" width="160" height="38" rx="0"/><text x="610" y="454" text-anchor="middle">COURSE_OFFERING</text></g>
<g class="entity"><rect x="130" y="620" width="120" height="38" rx="0"/><text x="190" y="644" text-anchor="middle">ENROLLMENT</text></g>
<g class="entity"><rect x="340" y="620" width="130" height="38" rx="0"/><text x="405" y="644" text-anchor="middle">WAITLIST_ENTRY</text></g>
<g class="entity"><rect x="700" y="620" width="100" height="38" rx="0"/><text x="750" y="644" text-anchor="middle">REVIEW</text></g>
<g class="entity"><rect x="1040" y="430" width="100" height="38" rx="0"/><text x="1090" y="454" text-anchor="middle">WARNING</text></g>
<g class="entity"><rect x="1160" y="620" width="110" height="38" rx="0"/><text x="1215" y="644" text-anchor="middle">COMPLAINT</text></g>
<g class="entity"><rect x="830" y="830" width="180" height="38" rx="0"/><text x="920" y="854" text-anchor="middle">GRADUATION_APPLICATION</text></g>
<g class="entity"><rect x="320" y="830" width="130" height="38" rx="0"/><text x="385" y="854" text-anchor="middle">AI_QUERY_LOG</text></g>
<g class="entity"><rect x="1140" y="220" width="110" height="38" rx="0"/><text x="1195" y="244" text-anchor="middle">TABOO_WORD</text></g>

<!-- RELATIONSHIPS -->
<g class="rel"><polygon points="330,139 360,155 330,171 300,155"/><text x="330" y="158" text-anchor="middle">is</text></g>
<line class="edge" x1="630" y1="68" x2="630" y2="120"/>
<line class="edge" x1="630" y1="120" x2="360" y2="155"/>
<line class="edge" x1="300" y1="155" x2="200" y2="220"/>
<text class="card-label" x="620" y="106">1</text>
<text class="card-label" x="221" y="214">0..1</text>

<g class="rel"><polygon points="630,139 660,155 630,171 600,155"/><text x="630" y="158" text-anchor="middle">is</text></g>
<line class="edge" x1="630" y1="68" x2="630" y2="139"/>
<line class="edge" x1="630" y1="171" x2="630" y2="220"/>
<text class="card-label" x="638" y="106">1</text>
<text class="card-label" x="638" y="214">0..1</text>

<g class="rel"><polygon points="930,139 960,155 930,171 900,155"/><text x="930" y="158" text-anchor="middle">is</text></g>
<line class="edge" x1="630" y1="68" x2="630" y2="80"/>
<line class="edge" x1="630" y1="80" x2="900" y2="155"/>
<line class="edge" x1="960" y1="155" x2="1070" y2="220"/>
<text class="card-label" x="638" y="80">1</text>
<text class="card-label" x="1055" y="214">0..1</text>

<g class="rel"><polygon points="890,300 920,316 890,332 860,316"/><text x="890" y="319" text-anchor="middle" style="font-size:10px">contains</text></g>
<line class="edge" x1="950" y1="68" x2="950" y2="270"/>
<line class="edge" x1="950" y1="270" x2="920" y2="316"/>
<line class="edge" x1="860" y1="316" x2="700" y2="430"/>
<text class="card-label" x="940" y="110">1</text>
<text class="card-label" x="693" y="424">N</text>

<g class="rel"><polygon points="460,300 490,316 460,332 430,316"/><text x="460" y="319" text-anchor="middle" style="font-size:9px">sched. as</text></g>
<line class="edge" x1="340" y1="68" x2="340" y2="270"/>
<line class="edge" x1="340" y1="270" x2="430" y2="316"/>
<line class="edge" x1="490" y1="316" x2="560" y2="430"/>
<text class="card-label" x="330" y="108">1</text>
<text class="card-label" x="553" y="424">N</text>

<g class="rel"><polygon points="610,338 640,354 610,370 580,354"/><text x="610" y="357" text-anchor="middle" style="font-size:10px">teaches</text></g>
<line class="edge" x1="630" y1="258" x2="630" y2="338"/>
<line class="edge" x1="610" y1="370" x2="610" y2="430"/>
<text class="card-label" x="638" y="280">1</text>
<text class="card-label" x="618" y="425">N</text>

<g class="rel"><polygon points="190,530 220,546 190,562 160,546"/><text x="190" y="549" text-anchor="middle" style="font-size:10px">owns</text></g>
<line class="edge" x1="200" y1="258" x2="200" y2="380"/>
<line class="edge" x1="200" y1="380" x2="190" y2="530"/>
<line class="edge" x1="190" y1="562" x2="190" y2="620"/>
<text class="card-label" x="208" y="278">1</text>
<text class="card-label" x="198" y="614">N</text>

<g class="rel"><polygon points="390,530 420,546 390,562 360,546"/><text x="390" y="549" text-anchor="middle" style="font-size:10px">has</text></g>
<line class="edge" x1="550" y1="464" x2="440" y2="510"/>
<line class="edge" x1="440" y1="510" x2="420" y2="546"/>
<line class="edge" x1="360" y1="546" x2="260" y2="620"/>
<text class="card-label" x="543" y="466">1</text>
<text class="card-label" x="253" y="615">N</text>

<g class="rel"><polygon points="330,530 360,546 330,562 300,546"/><text x="330" y="549" text-anchor="middle" style="font-size:9px">requests</text></g>
<line class="edge" x1="200" y1="258" x2="200" y2="380"/>
<line class="edge" x1="200" y1="380" x2="300" y2="546"/>
<line class="edge" x1="360" y1="546" x2="405" y2="620"/>
<text class="card-label" x="335" y="614">N</text>

<g class="rel"><polygon points="510,536 540,552 510,568 480,552"/><text x="510" y="555" text-anchor="middle" style="font-size:10px">queues</text></g>
<line class="edge" x1="560" y1="464" x2="540" y2="552"/>
<line class="edge" x1="480" y1="552" x2="450" y2="620"/>
<text class="card-label" x="553" y="468">1</text>
<text class="card-label" x="443" y="614">N</text>

<g class="rel"><polygon points="570,720 600,736 570,752 540,736"/><text x="570" y="739" text-anchor="middle" style="font-size:10px">writes</text></g>
<line class="edge" x1="200" y1="258" x2="200" y2="380"/>
<line class="edge" x1="200" y1="380" x2="540" y2="736"/>
<line class="edge" x1="600" y1="736" x2="700" y2="639"/>
<text class="card-label" x="693" y="637">N</text>

<g class="rel"><polygon points="700,536 730,552 700,568 670,552"/><text x="700" y="555" text-anchor="middle" style="font-size:9px">receives</text></g>
<line class="edge" x1="660" y1="468" x2="700" y2="530"/>
<line class="edge" x1="700" y1="568" x2="730" y2="620"/>
<text class="card-label" x="653" y="470">1</text>
<text class="card-label" x="733" y="614">N</text>

<g class="rel"><polygon points="940,340 970,356 940,372 910,356"/><text x="940" y="359" text-anchor="middle" style="font-size:9px">receives</text></g>
<line class="edge" x1="690" y1="49" x2="800" y2="49"/>
<line class="edge" x1="800" y1="49" x2="910" y2="356"/>
<line class="edge" x1="970" y1="356" x2="1060" y2="430"/>
<text class="card-label" x="695" y="45">1</text>
<text class="card-label" x="1056" y="424">N</text>

<g class="rel"><polygon points="1150,520 1180,536 1150,552 1120,536"/><text x="1150" y="539" text-anchor="middle" style="font-size:10px">files</text></g>
<line class="edge" x1="690" y1="49" x2="800" y2="49"/>
<line class="edge" x1="800" y1="49" x2="1120" y2="536"/>
<line class="edge" x1="1180" y1="536" x2="1210" y2="620"/>
<text class="card-label" x="1205" y="615">N</text>

<g class="rel"><polygon points="1260,520 1290,536 1260,552 1230,536"/><text x="1260" y="539" text-anchor="middle" style="font-size:9px">targeted by</text></g>
<line class="edge" x1="1130" y1="244" x2="1230" y2="244"/>
<line class="edge" x1="1230" y1="244" x2="1260" y2="520"/>
<line class="edge" x1="1260" y1="552" x2="1240" y2="620"/>
<text class="card-label" x="1233" y="614">N</text>

<g class="rel"><polygon points="550,740 580,756 550,772 520,756"/><text x="550" y="759" text-anchor="middle" style="font-size:10px">submits</text></g>
<line class="edge" x1="200" y1="258" x2="140" y2="258"/>
<line class="edge" x1="140" y1="258" x2="140" y2="800"/>
<line class="edge" x1="140" y1="800" x2="520" y2="756"/>
<line class="edge" x1="580" y1="756" x2="830" y2="849"/>
<text class="card-label" x="824" y="846">N</text>

<g class="rel"><polygon points="990,740 1020,756 990,772 960,756"/><text x="990" y="759" text-anchor="middle" style="font-size:10px">audits</text></g>
<line class="edge" x1="1070" y1="258" x2="1070" y2="700"/>
<line class="edge" x1="1070" y1="700" x2="1020" y2="756"/>
<line class="edge" x1="960" y1="756" x2="1010" y2="830"/>
<text class="card-label" x="1063" y="268">1</text>
<text class="card-label" x="1006" y="824">N</text>

<g class="rel"><polygon points="385,720 415,736 385,752 355,736"/><text x="385" y="739" text-anchor="middle" style="font-size:10px">asks</text></g>
<line class="edge" x1="570" y1="49" x2="385" y2="49"/>
<line class="edge" x1="385" y1="49" x2="355" y2="736"/>
<line class="edge" x1="385" y1="752" x2="385" y2="830"/>
<text class="card-label" x="376" y="824">N</text>

<g class="rel"><polygon points="1195,338 1225,354 1195,370 1165,354"/><text x="1195" y="357" text-anchor="middle" style="font-size:9px">maintains</text></g>
<line class="edge" x1="1130" y1="244" x2="1165" y2="354"/>
<line class="edge" x1="1195" y1="258" x2="1195" y2="338"/>
<line class="edge" x1="1195" y1="370" x2="1195" y2="390"/>
<line class="edge" x1="1195" y1="390" x2="1195" y2="220"/>
<text class="card-label" x="1203" y="268">1</text>
<text class="card-label" x="1200" y="386">N</text>

<!-- ATTRIBUTES -->
<g class="attr-key"><ellipse cx="490" cy="30" rx="36" ry="14"/><text x="490" y="33" text-anchor="middle">user_id</text></g>
<line class="edge-dashed" x1="526" y1="30" x2="570" y2="42"/>
<g class="attr"><ellipse cx="630" cy="6" rx="28" ry="12"/><text x="630" y="9" text-anchor="middle">role</text></g>
<line class="edge-dashed" x1="630" y1="18" x2="630" y2="30"/>
<g class="attr"><ellipse cx="710" cy="22" rx="36" ry="13"/><text x="710" y="25" text-anchor="middle">status</text></g>
<line class="edge-dashed" x1="690" y1="30" x2="710" y2="35"/>

<g class="attr-key"><ellipse cx="60" cy="228" rx="42" ry="14"/><text x="60" y="231" text-anchor="middle">student_id</text></g>
<line class="edge-dashed" x1="102" y1="234" x2="140" y2="236"/>
<g class="attr"><ellipse cx="62" cy="270" rx="50" ry="13"/><text x="62" y="273" text-anchor="middle">cumulative_gpa</text></g>
<line class="edge-dashed" x1="112" y1="268" x2="140" y2="258"/>
<g class="attr"><ellipse cx="80" cy="306" rx="40" ry="13"/><text x="80" y="309" text-anchor="middle">honors_count</text></g>
<line class="edge-dashed" x1="120" y1="298" x2="144" y2="258"/>
<g class="attr"><ellipse cx="100" cy="194" rx="38" ry="13"/><text x="100" y="197" text-anchor="middle">graduated</text></g>
<line class="edge-dashed" x1="138" y1="200" x2="160" y2="222"/>

<g class="attr-key"><ellipse cx="500" cy="228" rx="50" ry="14"/><text x="500" y="231" text-anchor="middle">instructor_id</text></g>
<line class="edge-dashed" x1="550" y1="234" x2="570" y2="236"/>
<g class="attr"><ellipse cx="710" cy="200" rx="50" ry="13"/><text x="710" y="203" text-anchor="middle">warnings_count</text></g>
<line class="edge-dashed" x1="690" y1="228" x2="710" y2="213"/>
<g class="attr"><ellipse cx="718" cy="258" rx="42" ry="13"/><text x="718" y="261" text-anchor="middle">department</text></g>
<line class="edge-dashed" x1="690" y1="252" x2="718" y2="258"/>

<g class="attr-key"><ellipse cx="950" cy="228" rx="50" ry="14"/><text x="950" y="231" text-anchor="middle">registrar_id</text></g>
<line class="edge-dashed" x1="1000" y1="232" x2="1010" y2="236"/>
<g class="attr"><ellipse cx="918" cy="270" rx="46" ry="13"/><text x="918" y="273" text-anchor="middle">office_title</text></g>
<line class="edge-dashed" x1="964" y1="268" x2="1010" y2="258"/>

<g class="attr-key"><ellipse cx="820" cy="26" rx="50" ry="13"/><text x="820" y="29" text-anchor="middle">semester_id</text></g>
<line class="edge-dashed" x1="870" y1="30" x2="890" y2="40"/>
<g class="attr"><ellipse cx="960" cy="6" rx="50" ry="12"/><text x="960" y="9" text-anchor="middle">current_phase</text></g>
<line class="edge-dashed" x1="960" y1="18" x2="955" y2="30"/>

<g class="attr-key"><ellipse cx="240" cy="8" rx="46" ry="12"/><text x="240" y="11" text-anchor="middle">course_code</text></g>
<line class="edge-dashed" x1="286" y1="12" x2="300" y2="30"/>
<g class="attr"><ellipse cx="198" cy="40" rx="32" ry="12"/><text x="198" y="43" text-anchor="middle">credits</text></g>
<line class="edge-dashed" x1="230" y1="44" x2="280" y2="44"/>

<g class="attr-key"><ellipse cx="440" cy="410" rx="46" ry="13"/><text x="440" y="413" text-anchor="middle">offering_id</text></g>
<line class="edge-dashed" x1="486" y1="416" x2="530" y2="438"/>
<g class="attr"><ellipse cx="470" cy="480" rx="46" ry="13"/><text x="470" y="483" text-anchor="middle">capacity</text></g>
<line class="edge-dashed" x1="516" y1="472" x2="534" y2="460"/>
<g class="attr"><ellipse cx="620" cy="404" rx="52" ry="13"/><text x="620" y="407" text-anchor="middle">avg_rating</text></g>
<line class="edge-dashed" x1="610" y1="417" x2="610" y2="430"/>
<g class="attr"><ellipse cx="700" cy="406" rx="52" ry="13"/><text x="700" y="409" text-anchor="middle">grades_posted</text></g>
<line class="edge-dashed" x1="690" y1="418" x2="680" y2="430"/>

<g class="attr-key"><ellipse cx="50" cy="628" rx="52" ry="13"/><text x="50" y="631" text-anchor="middle">enrollment_id</text></g>
<line class="edge-dashed" x1="102" y1="634" x2="130" y2="638"/>
<g class="attr"><ellipse cx="58" cy="670" rx="50" ry="13"/><text x="58" y="673" text-anchor="middle">final_grade</text></g>
<line class="edge-dashed" x1="108" y1="663" x2="132" y2="650"/>
<g class="attr"><ellipse cx="100" cy="596" rx="46" ry="13"/><text x="100" y="599" text-anchor="middle">status</text></g>
<line class="edge-dashed" x1="146" y1="604" x2="160" y2="620"/>

<g class="attr-key"><ellipse cx="330" cy="600" rx="50" ry="13"/><text x="330" y="603" text-anchor="middle">waitlist_id</text></g>
<line class="edge-dashed" x1="380" y1="606" x2="380" y2="620"/>
<g class="attr"><ellipse cx="260" cy="638" rx="56" ry="13"/><text x="260" y="641" text-anchor="middle">queue_position</text></g>
<line class="edge-dashed" x1="316" y1="638" x2="344" y2="638"/>

<g class="attr-key"><ellipse cx="800" cy="604" rx="42" ry="13"/><text x="800" y="607" text-anchor="middle">review_id</text></g>
<line class="edge-dashed" x1="758" y1="608" x2="800" y2="620"/>
<g class="attr"><ellipse cx="822" cy="644" rx="28" ry="13"/><text x="822" y="647" text-anchor="middle">stars</text></g>
<line class="edge-dashed" x1="794" y1="640" x2="800" y2="638"/>
<g class="attr"><ellipse cx="816" cy="680" rx="34" ry="13"/><text x="816" y="683" text-anchor="middle">visible</text></g>
<line class="edge-dashed" x1="782" y1="658" x2="800" y2="658"/>

<g class="attr-key"><ellipse cx="1150" cy="420" rx="46" ry="13"/><text x="1150" y="423" text-anchor="middle">warning_id</text></g>
<line class="edge-dashed" x1="1104" y1="428" x2="1104" y2="440"/>
<line class="edge-dashed" x1="1104" y1="440" x2="1140" y2="440"/>
<g class="attr"><ellipse cx="1090" cy="396" rx="34" ry="13"/><text x="1090" y="399" text-anchor="middle">reason</text></g>
<line class="edge-dashed" x1="1090" y1="430" x2="1090" y2="409"/>
<g class="attr"><ellipse cx="1130" cy="480" rx="34" ry="13"/><text x="1130" y="483" text-anchor="middle">active</text></g>
<line class="edge-dashed" x1="1110" y1="468" x2="1114" y2="460"/>

<g class="attr-key"><ellipse cx="1318" cy="628" rx="52" ry="13"/><text x="1318" y="631" text-anchor="middle">complaint_id</text></g>
<line class="edge-dashed" x1="1266" y1="632" x2="1318" y2="632"/>
<g class="attr"><ellipse cx="1320" cy="670" rx="42" ry="13"/><text x="1320" y="673" text-anchor="middle">category</text></g>
<line class="edge-dashed" x1="1278" y1="658" x2="1320" y2="663"/>
<g class="attr"><ellipse cx="1320" cy="706" rx="38" ry="13"/><text x="1320" y="709" text-anchor="middle">status</text></g>
<line class="edge-dashed" x1="1278" y1="662" x2="1320" y2="696"/>

<g class="attr-key"><ellipse cx="800" cy="868" rx="92" ry="13"/><text x="800" y="871" text-anchor="middle">graduation_application_id</text></g>
<line class="edge-dashed" x1="830" y1="862" x2="832" y2="868"/>
<g class="attr"><ellipse cx="1006" cy="882" rx="36" ry="13"/><text x="1006" y="885" text-anchor="middle">status</text></g>
<line class="edge-dashed" x1="1010" y1="855" x2="1010" y2="869"/>

<g class="attr-key"><ellipse cx="232" cy="862" rx="54" ry="13"/><text x="232" y="865" text-anchor="middle">query_log_id</text></g>
<line class="edge-dashed" x1="286" y1="860" x2="320" y2="852"/>
<g class="attr"><ellipse cx="232" cy="898" rx="50" ry="13"/><text x="232" y="901" text-anchor="middle">answer_source</text></g>
<line class="edge-dashed" x1="282" y1="893" x2="320" y2="862"/>

<g class="attr-key"><ellipse cx="1320" cy="200" rx="58" ry="13"/><text x="1320" y="203" text-anchor="middle">taboo_word_id</text></g>
<line class="edge-dashed" x1="1262" y1="216" x2="1290" y2="220"/>
<g class="attr"><ellipse cx="1342" cy="254" rx="44" ry="13"/><text x="1342" y="257" text-anchor="middle">word_text</text></g>
<line class="edge-dashed" x1="1298" y1="250" x2="1250" y2="248"/>
<g class="attr"><ellipse cx="1346" cy="288" rx="28" ry="13"/><text x="1346" y="291" text-anchor="middle">active</text></g>
<line class="edge-dashed" x1="1300" y1="280" x2="1250" y2="256"/>

<!-- LEGEND -->
<g transform="translate(0,955)">
  <rect class="legend" x="30" y="0" width="580" height="54" rx="4" stroke-width="0.8" fill="transparent"/>
  <text x="320" y="-6" text-anchor="middle" style="font-size:11px;fill:#aaa;font-family:Arial,sans-serif">Chen Notation Legend</text>
  <g class="legend"><rect x="50" y="10" width="70" height="28" rx="0"/><text x="85" y="28" text-anchor="middle">Entity</text></g>
  <text x="132" y="27" class="legend" style="fill:#aaa">= rectangle</text>
  <g class="legend"><polygon points="240,10 270,24 240,38 210,24"/><text x="240" y="27" text-anchor="middle">Rel</text></g>
  <text x="284" y="27" class="legend" style="fill:#aaa">= diamond</text>
  <g class="legend"><ellipse cx="390" cy="24" rx="38" ry="14"/><text x="390" y="27" text-anchor="middle">Attribute</text></g>
  <text x="440" y="27" class="legend" style="fill:#aaa">= oval</text>
  <g class="attr-key"><ellipse cx="520" cy="24" rx="42" ry="14"/><text x="520" y="27" text-anchor="middle" style="text-decoration:underline">PK attr</text></g>
  <text x="574" y="27" class="legend" style="fill:#aaa">= underlined</text>
</g>

</svg>
